# Blender 4.4.0
# www.blender.org
mtllib Arrow.mtl
o Cylinder
v -1.007833 0.000000 -0.172168
v 0.500000 -0.000000 -0.172168
v -1.007833 -0.019509 -0.168860
v 0.500000 -0.019509 -0.168860
v -1.007833 -0.038268 -0.159063
v 0.500000 -0.038268 -0.159063
v -1.007833 -0.055557 -0.143153
v 0.500000 -0.055557 -0.143153
v -1.007833 -0.070711 -0.121741
v 0.500000 -0.070711 -0.121741
v -1.007833 -0.083147 -0.095652
v 0.500000 -0.083147 -0.095652
v -1.007833 -0.092388 -0.065886
v 0.500000 -0.092388 -0.065886
v -1.007833 -0.098078 -0.033588
v 0.500000 -0.098079 -0.033588
v -1.007833 -0.100000 0.000000
v 0.500000 -0.100000 0.000000
v -1.007833 -0.098078 0.033588
v 0.500000 -0.098079 0.033588
v -1.007833 -0.092388 0.065886
v 0.500000 -0.092388 0.065886
v -1.007833 -0.083147 0.095652
v 0.500000 -0.083147 0.095652
v -1.007833 -0.070711 0.121741
v 0.500000 -0.070711 0.121741
v -1.007833 -0.055557 0.143153
v 0.500000 -0.055557 0.143153
v -1.007833 -0.038268 0.159063
v 0.500000 -0.038268 0.159063
v -1.007833 -0.019509 0.168860
v 0.500000 -0.019509 0.168860
v -1.007833 0.000000 0.172168
v 0.500000 -0.000000 0.172168
v -1.007833 0.019509 0.168860
v 0.500000 0.019509 0.168860
v -1.007833 0.038268 0.159063
v 0.500000 0.038268 0.159063
v -1.007833 0.055557 0.143153
v 0.500000 0.055557 0.143153
v -1.007833 0.070711 0.121741
v 0.500000 0.070711 0.121741
v -1.007833 0.083147 0.095652
v 0.500000 0.083147 0.095652
v -1.007833 0.092388 0.065886
v 0.500000 0.092388 0.065886
v -1.007833 0.098079 0.033588
v 0.500000 0.098079 0.033588
v -1.007833 0.100000 0.000000
v 0.500000 0.100000 0.000000
v -1.007833 0.098079 -0.033588
v 0.500000 0.098079 -0.033588
v -1.007833 0.092388 -0.065886
v 0.500000 0.092388 -0.065886
v -1.007833 0.083147 -0.095652
v 0.500000 0.083147 -0.095652
v -1.007833 0.070711 -0.121741
v 0.500000 0.070711 -0.121741
v -1.007833 0.055557 -0.143153
v 0.500000 0.055557 -0.143153
v -1.007833 0.038268 -0.159063
v 0.500000 0.038268 -0.159063
v -1.007833 0.019509 -0.168860
v 0.500000 0.019509 -0.168860
v 0.484661 -0.029798 -0.599223
v 0.484661 -0.000000 -0.610962
v 0.484661 -0.058451 -0.564456
v 0.484661 -0.084858 -0.507997
v 0.484661 -0.108004 -0.432016
v 0.484661 -0.126999 -0.339433
v 0.484661 -0.141114 -0.233805
v 0.484661 -0.149806 -0.119193
v 0.484661 -0.152741 0.000000
v 0.484661 -0.149806 0.119193
v 0.484661 -0.141114 0.233805
v 0.484661 -0.126999 0.339432
v 0.484661 -0.108004 0.432016
v 0.484661 -0.084858 0.507997
v 0.484661 -0.058451 0.564456
v 0.484661 -0.029798 0.599223
v 0.484661 -0.000000 0.610962
v 0.484661 0.029798 0.599223
v 0.484661 0.058451 0.564456
v 0.484661 0.084858 0.507997
v 0.484661 0.108004 0.432016
v 0.484661 0.126999 0.339433
v 0.484661 0.141114 0.233805
v 0.484661 0.149806 0.119193
v 0.484661 0.152741 -0.000000
v 0.484661 0.149806 -0.119193
v 0.484661 0.141114 -0.233805
v 0.484661 0.126999 -0.339432
v 0.484661 0.108004 -0.432016
v 0.484661 0.084858 -0.507997
v 0.484661 0.058451 -0.564456
v 0.484661 0.029798 -0.599223
v 1.830876 -0.000077 -0.001545
v 1.830876 -0.000000 -0.001575
v 1.830876 -0.000151 -0.001455
v 1.830876 -0.000219 -0.001310
v 1.830876 -0.000279 -0.001114
v 1.830876 -0.000327 -0.000875
v 1.830876 -0.000364 -0.000603
v 1.830876 -0.000386 -0.000307
v 1.830876 -0.000394 0.000000
v 1.830876 -0.000386 0.000307
v 1.830876 -0.000364 0.000603
v 1.830876 -0.000327 0.000875
v 1.830876 -0.000279 0.001114
v 1.830876 -0.000219 0.001310
v 1.830876 -0.000151 0.001455
v 1.830876 -0.000077 0.001545
v 1.830876 -0.000000 0.001575
v 1.830876 0.000077 0.001545
v 1.830876 0.000151 0.001455
v 1.830876 0.000219 0.001310
v 1.830876 0.000278 0.001114
v 1.830876 0.000327 0.000875
v 1.830876 0.000364 0.000603
v 1.830876 0.000386 0.000307
v 1.830876 0.000394 0.000000
v 1.830876 0.000386 -0.000307
v 1.830876 0.000364 -0.000603
v 1.830876 0.000327 -0.000875
v 1.830876 0.000278 -0.001114
v 1.830876 0.000219 -0.001310
v 1.830876 0.000151 -0.001455
v 1.830876 0.000077 -0.001545
vn -0.6146 -0.0000 -0.7888
vn -0.6461 -0.0000 -0.7633
vn -0.6276 -0.2486 -0.7378
vn -0.5941 -0.2625 -0.7603
vn -0.5775 -0.4689 -0.6683
vn -0.5392 -0.4919 -0.6836
vn -0.5084 -0.6455 -0.5700
vn -0.4645 -0.6714 -0.5775
vn -0.4327 -0.7767 -0.4577
vn -0.3835 -0.8013 -0.4593
vn -0.3601 -0.8685 -0.3408
vn -0.3058 -0.8897 -0.3391
vn -0.2987 -0.9277 -0.2242
vn -0.2386 -0.9455 -0.2217
vn -0.2575 -0.9600 -0.1103
vn -0.1908 -0.9756 -0.1088
vn -0.2434 -0.9699 -0.0000
vn -0.1731 -0.9849 -0.0000
vn -0.2575 -0.9600 0.1103
vn -0.1908 -0.9756 0.1088
vn -0.2987 -0.9277 0.2242
vn -0.2386 -0.9455 0.2217
vn -0.3601 -0.8685 0.3408
vn -0.3058 -0.8897 0.3391
vn -0.4327 -0.7767 0.4577
vn -0.3835 -0.8013 0.4593
vn -0.5084 -0.6455 0.5700
vn -0.4645 -0.6714 0.5775
vn -0.5775 -0.4689 0.6683
vn -0.5392 -0.4919 0.6836
vn -0.6276 -0.2486 0.7378
vn -0.5941 -0.2625 0.7603
vn -0.6461 -0.0000 0.7633
vn -0.6146 -0.0000 0.7888
vn -0.6276 0.2486 0.7378
vn -0.5941 0.2625 0.7603
vn -0.5775 0.4689 0.6683
vn -0.5392 0.4919 0.6836
vn -0.5084 0.6455 0.5700
vn -0.4645 0.6714 0.5775
vn -0.4327 0.7767 0.4577
vn -0.3835 0.8013 0.4593
vn -0.3601 0.8685 0.3408
vn -0.3058 0.8897 0.3391
vn -0.2987 0.9277 0.2242
vn -0.2386 0.9455 0.2217
vn -0.2575 0.9600 0.1103
vn -0.1908 0.9756 0.1088
vn -0.2434 0.9699 -0.0000
vn -0.1731 0.9849 -0.0000
vn -0.2575 0.9600 -0.1103
vn -0.1908 0.9756 -0.1088
vn -0.2987 0.9277 -0.2242
vn -0.2386 0.9455 -0.2217
vn -0.3601 0.8685 -0.3408
vn -0.3058 0.8897 -0.3391
vn -0.4327 0.7767 -0.4577
vn -0.3835 0.8013 -0.4593
vn -0.5084 0.6455 -0.5700
vn -0.4645 0.6714 -0.5775
vn -0.5775 0.4689 -0.6683
vn -0.5392 0.4919 -0.6836
vn -0.3396 -0.5885 0.7337
vn -0.4131 -0.0000 0.9107
vn -0.6276 0.2486 -0.7378
vn -0.5941 0.2625 -0.7603
vn -0.3396 -0.5885 -0.7337
vn -0.4131 -0.0000 -0.9107
vn 0.7908 -0.0001 -0.6121
vn 0.7177 -0.4336 -0.5449
vn -0.1162 0.9932 -0.0000
vn -0.1179 0.9919 -0.0483
vn -0.2451 -0.8319 -0.4978
vn -0.1875 -0.9211 -0.3413
vn -0.1346 -0.9777 0.1610
vn -0.1542 -0.9592 0.2370
vn -0.1542 0.9592 0.2370
vn -0.1346 0.9777 0.1610
vn -0.1875 0.9211 -0.3413
vn -0.2451 0.8319 -0.4978
vn -0.1179 -0.9919 -0.0483
vn -0.1162 -0.9932 -0.0000
vn -0.3396 0.5885 0.7337
vn -0.1234 0.9873 -0.1004
vn -0.1542 -0.9592 -0.2370
vn -0.1875 -0.9211 0.3413
vn -0.1234 0.9873 0.1004
vn -0.3396 0.5885 -0.7337
vn -0.1179 -0.9919 0.0483
vn -0.2451 0.8319 0.4978
vn -0.1346 0.9777 -0.1610
vn -0.1346 -0.9777 -0.1610
vn -0.2451 -0.8319 0.4978
vn -0.1179 0.9919 0.0483
vn -0.1234 -0.9873 0.1004
vn -0.1875 0.9211 0.3413
vn -0.1542 0.9592 -0.2370
vn -0.1234 -0.9873 -0.1004
vn 0.7177 0.4335 -0.5449
vn 0.5857 0.6939 -0.4189
vn 0.4782 0.8226 -0.3078
vn 0.4051 0.8870 -0.2218
vn 0.3578 0.9211 -0.1539
vn 0.3284 0.9395 -0.0973
vn 0.3124 0.9488 -0.0472
vn 0.3073 0.9516 -0.0000
vn 0.3124 0.9488 0.0472
vn 0.3284 0.9395 0.0973
vn 0.3578 0.9211 0.1539
vn 0.4051 0.8870 0.2218
vn 0.4782 0.8226 0.3078
vn 0.5857 0.6939 0.4189
vn 0.7177 0.4335 0.5449
vn 0.7908 -0.0001 0.6121
vn 0.7177 -0.4336 0.5449
vn 0.5856 -0.6940 0.4188
vn 0.4781 -0.8226 0.3078
vn 0.4051 -0.8870 0.2217
vn 0.3577 -0.9211 0.1539
vn 0.3284 -0.9395 0.0973
vn 0.3124 -0.9488 0.0472
vn 0.3073 -0.9516 -0.0000
vn 0.3124 -0.9488 -0.0472
vn 0.3284 -0.9395 -0.0973
vn 0.3577 -0.9211 -0.1539
vn 0.4051 -0.8870 -0.2217
vn 0.4781 -0.8226 -0.3078
vn 0.5856 -0.6940 -0.4188
vt 1.000000 0.500000
vt 1.000000 1.000000
vt 0.968750 1.000000
vt 0.968750 0.500000
vt 0.937500 1.000000
vt 0.937500 0.500000
vt 0.906250 1.000000
vt 0.906250 0.500000
vt 0.875000 1.000000
vt 0.875000 0.500000
vt 0.843750 1.000000
vt 0.843750 0.500000
vt 0.812500 1.000000
vt 0.812500 0.500000
vt 0.781250 1.000000
vt 0.781250 0.500000
vt 0.750000 1.000000
vt 0.750000 0.500000
vt 0.718750 1.000000
vt 0.718750 0.500000
vt 0.687500 1.000000
vt 0.687500 0.500000
vt 0.656250 1.000000
vt 0.656250 0.500000
vt 0.625000 1.000000
vt 0.625000 0.500000
vt 0.593750 1.000000
vt 0.593750 0.500000
vt 0.562500 1.000000
vt 0.562500 0.500000
vt 0.531250 1.000000
vt 0.531250 0.500000
vt 0.500000 1.000000
vt 0.500000 0.500000
vt 0.468750 1.000000
vt 0.468750 0.500000
vt 0.437500 1.000000
vt 0.437500 0.500000
vt 0.406250 1.000000
vt 0.406250 0.500000
vt 0.375000 1.000000
vt 0.375000 0.500000
vt 0.343750 1.000000
vt 0.343750 0.500000
vt 0.312500 1.000000
vt 0.312500 0.500000
vt 0.281250 1.000000
vt 0.281250 0.500000
vt 0.250000 1.000000
vt 0.250000 0.500000
vt 0.218750 1.000000
vt 0.218750 0.500000
vt 0.187500 1.000000
vt 0.187500 0.500000
vt 0.156250 1.000000
vt 0.156250 0.500000
vt 0.125000 1.000000
vt 0.125000 0.500000
vt 0.093750 1.000000
vt 0.093750 0.500000
vt 0.062500 1.000000
vt 0.062500 0.500000
vt 0.031250 1.000000
vt 0.031250 0.500000
vt 0.000000 1.000000
vt 0.000000 0.500000
vt 0.750000 0.490000
vt 0.796822 0.485388
vt 0.841844 0.471731
vt 0.883337 0.449553
vt 0.919706 0.419706
vt 0.949553 0.383337
vt 0.971731 0.341844
vt 0.985388 0.296822
vt 0.990000 0.250000
vt 0.985388 0.203178
vt 0.971731 0.158156
vt 0.949553 0.116663
vt 0.919706 0.080294
vt 0.883337 0.050447
vt 0.841844 0.028269
vt 0.796822 0.014612
vt 0.750000 0.010000
vt 0.703178 0.014612
vt 0.658156 0.028269
vt 0.616663 0.050447
vt 0.580294 0.080294
vt 0.550447 0.116663
vt 0.528269 0.158156
vt 0.514612 0.203178
vt 0.510000 0.250000
vt 0.514612 0.296822
vt 0.528269 0.341844
vt 0.550447 0.383337
vt 0.580294 0.419706
vt 0.616663 0.449553
vt 0.658156 0.471731
vt 0.703178 0.485388
vt 0.296822 0.485388
vt 0.250000 0.490000
vt 0.203178 0.485388
vt 0.158156 0.471731
vt 0.116663 0.449553
vt 0.080294 0.419706
vt 0.050447 0.383337
vt 0.028269 0.341844
vt 0.014612 0.296822
vt 0.010000 0.250000
vt 0.014612 0.203178
vt 0.028269 0.158156
vt 0.050447 0.116663
vt 0.080294 0.080294
vt 0.116663 0.050447
vt 0.158156 0.028269
vt 0.203178 0.014612
vt 0.250000 0.010000
vt 0.296822 0.014612
vt 0.341844 0.028269
vt 0.383337 0.050447
vt 0.419706 0.080294
vt 0.449553 0.116663
vt 0.471731 0.158156
vt 0.485388 0.203178
vt 0.490000 0.250000
vt 0.485388 0.296822
vt 0.471731 0.341844
vt 0.449553 0.383337
vt 0.419706 0.419706
vt 0.383337 0.449553
vt 0.341844 0.471731
s 1
usemtl Material.002
f 1/1/1 2/2/2 4/3/3 3/4/4
f 3/4/4 4/3/3 6/5/5 5/6/6
f 5/6/6 6/5/5 8/7/7 7/8/8
f 7/8/8 8/7/7 10/9/9 9/10/10
f 9/10/10 10/9/9 12/11/11 11/12/12
f 11/12/12 12/11/11 14/13/13 13/14/14
f 13/14/14 14/13/13 16/15/15 15/16/16
f 15/16/16 16/15/15 18/17/17 17/18/18
f 17/18/18 18/17/17 20/19/19 19/20/20
f 19/20/20 20/19/19 22/21/21 21/22/22
f 21/22/22 22/21/21 24/23/23 23/24/24
f 23/24/24 24/23/23 26/25/25 25/26/26
f 25/26/26 26/25/25 28/27/27 27/28/28
f 27/28/28 28/27/27 30/29/29 29/30/30
f 29/30/30 30/29/29 32/31/31 31/32/32
f 31/32/32 32/31/31 34/33/33 33/34/34
f 33/34/34 34/33/33 36/35/35 35/36/36
f 35/36/36 36/35/35 38/37/37 37/38/38
f 37/38/38 38/37/37 40/39/39 39/40/40
f 39/40/40 40/39/39 42/41/41 41/42/42
f 41/42/42 42/41/41 44/43/43 43/44/44
f 43/44/44 44/43/43 46/45/45 45/46/46
f 45/46/46 46/45/45 48/47/47 47/48/48
f 47/48/48 48/47/47 50/49/49 49/50/50
f 49/50/50 50/49/49 52/51/51 51/52/52
f 51/52/52 52/51/51 54/53/53 53/54/54
f 53/54/54 54/53/53 56/55/55 55/56/56
f 55/56/56 56/55/55 58/57/57 57/58/58
f 57/58/58 58/57/57 60/59/59 59/60/60
f 59/60/60 60/59/59 62/61/61 61/62/62
f 34/33/33 32/31/31 80/31/63 81/33/64
f 61/62/62 62/61/61 64/63/65 63/64/66
f 63/64/66 64/63/65 2/65/2 1/66/1
f 1/67/1 3/68/4 5/69/6 7/70/8 9/71/10 11/72/12 13/73/14 15/74/16 17/75/18 19/76/20 21/77/22 23/78/24 25/79/26 27/80/28 29/81/30 31/82/32 33/83/34 35/84/36 37/85/38 39/86/40 41/87/42 43/88/44 45/89/46 47/90/48 49/91/50 51/92/52 53/93/54 55/94/56 57/95/58 59/96/60 61/97/62 63/98/66
f 65/3/67 66/2/68 98/2/69 97/3/70
f 52/51/51 50/49/49 89/49/71 90/51/72
f 8/7/7 6/5/5 67/5/73 68/7/74
f 26/25/25 24/23/23 76/23/75 77/25/76
f 44/43/43 42/41/41 85/41/77 86/43/78
f 62/61/61 60/59/59 94/59/79 95/61/80
f 18/17/17 16/15/15 72/15/81 73/17/82
f 36/35/35 34/33/33 81/33/64 82/35/83
f 54/53/53 52/51/51 90/51/72 91/53/84
f 10/9/9 8/7/7 68/7/74 69/9/85
f 28/27/27 26/25/25 77/25/76 78/27/86
f 46/45/45 44/43/43 86/43/78 87/45/87
f 64/63/65 62/61/61 95/61/80 96/63/88
f 20/19/19 18/17/17 73/17/82 74/19/89
f 38/37/37 36/35/35 82/35/83 83/37/90
f 56/55/55 54/53/53 91/53/84 92/55/91
f 12/11/11 10/9/9 69/9/85 70/11/92
f 30/29/29 28/27/27 78/27/86 79/29/93
f 48/47/47 46/45/45 87/45/87 88/47/94
f 4/3/3 2/2/2 66/2/68 65/3/67
f 2/65/2 64/63/65 96/63/88 66/65/68
f 22/21/21 20/19/19 74/19/89 75/21/95
f 40/39/39 38/37/37 83/37/90 84/39/96
f 58/57/57 56/55/55 92/55/91 93/57/97
f 14/13/13 12/11/11 70/11/92 71/13/98
f 32/31/31 30/29/29 79/29/93 80/31/63
f 50/49/49 48/47/47 88/47/94 89/49/71
f 6/5/5 4/3/3 65/3/67 67/5/73
f 24/23/23 22/21/21 75/21/95 76/23/75
f 42/41/41 40/39/39 84/39/96 85/41/77
f 60/59/59 58/57/57 93/57/97 94/59/79
f 16/15/15 14/13/13 71/13/98 72/15/81
f 97/99/70 98/100/69 128/101/99 127/102/100 126/103/101 125/104/102 124/105/103 123/106/104 122/107/105 121/108/106 120/109/107 119/110/108 118/111/109 117/112/110 116/113/111 115/114/112 114/115/113 113/116/114 112/117/115 111/118/116 110/119/117 109/120/118 108/121/119 107/122/120 106/123/121 105/124/122 104/125/123 103/126/124 102/127/125 101/128/126 100/129/127 99/130/128
f 93/57/97 92/55/91 124/55/103 125/57/102
f 80/31/63 79/29/93 111/29/116 112/31/115
f 67/5/73 65/3/67 97/3/70 99/5/128
f 94/59/79 93/57/97 125/57/102 126/59/101
f 81/33/64 80/31/63 112/31/115 113/33/114
f 68/7/74 67/5/73 99/5/128 100/7/127
f 95/61/80 94/59/79 126/59/101 127/61/100
f 82/35/83 81/33/64 113/33/114 114/35/113
f 69/9/85 68/7/74 100/7/127 101/9/126
f 96/63/88 95/61/80 127/61/100 128/63/99
f 83/37/90 82/35/83 114/35/113 115/37/112
f 70/11/92 69/9/85 101/9/126 102/11/125
f 66/65/68 96/63/88 128/63/99 98/65/69
f 84/39/96 83/37/90 115/37/112 116/39/111
f 71/13/98 70/11/92 102/11/125 103/13/124
f 85/41/77 84/39/96 116/39/111 117/41/110
f 72/15/81 71/13/98 103/13/124 104/15/123
f 86/43/78 85/41/77 117/41/110 118/43/109
f 73/17/82 72/15/81 104/15/123 105/17/122
f 87/45/87 86/43/78 118/43/109 119/45/108
f 74/19/89 73/17/82 105/17/122 106/19/121
f 88/47/94 87/45/87 119/45/108 120/47/107
f 75/21/95 74/19/89 106/19/121 107/21/120
f 89/49/71 88/47/94 120/47/107 121/49/106
f 76/23/75 75/21/95 107/21/120 108/23/119
f 90/51/72 89/49/71 121/49/106 122/51/105
f 77/25/76 76/23/75 108/23/119 109/25/118
f 91/53/84 90/51/72 122/51/105 123/53/104
f 78/27/86 77/25/76 109/25/118 110/27/117
f 92/55/91 91/53/84 123/53/104 124/55/103
f 79/29/93 78/27/86 110/27/117 111/29/116
